<svg width="1024" height="1024" viewBox="0 0 1024 1024" fill="none" xmlns="http://www.w3.org/2000/svg">
  <!-- MyBuddy app icon: abstract friendly desktop companion, flat and minimal. Rounded top revision. -->
  <rect x="80" y="80" width="864" height="864" rx="220" fill="#EAF7F2"/>
  <circle cx="785" cy="230" r="72" fill="#FFE1B8" opacity="0.95"/>
  <circle cx="248" cy="790" r="54" fill="#FFD0D9" opacity="0.9"/>

  <!-- abstract buddy bubble with completely rounded upper half -->
  <path d="M512 238
           C378 238 281 333 281 461
           C281 541 323 611 391 650
           C405 681 394 708 366 741
           C438 781 526 752 566 681
           C674 660 748 575 748 461
           C748 333 646 238 512 238Z"
        fill="#FFF7D9" stroke="#26211F" stroke-width="34" stroke-linecap="round" stroke-linejoin="round"/>

  <!-- face -->
  <circle cx="448" cy="470" r="30" fill="#26211F"/>
  <circle cx="580" cy="470" r="30" fill="#26211F"/>
  <circle cx="438" cy="458" r="9" fill="white"/>
  <circle cx="570" cy="458" r="9" fill="white"/>
  <path d="M482 526 C497 544 529 544 544 526" stroke="#26211F" stroke-width="20" stroke-linecap="round"/>

  <!-- tiny cursor accent to hint desktop tool -->
  <path d="M642 635 L790 701 L727 724 L763 805 L716 826 L681 747 L620 803 L642 635Z"
        fill="#7ADACB" stroke="#26211F" stroke-width="26" stroke-linejoin="round"/>
  <path d="M752 723 L802 704" stroke="#26211F" stroke-width="22" stroke-linecap="round"/>
</svg>
